<svg width="22" height="27" viewBox="0 0 22 27" fill="none" xmlns="http://www.w3.org/2000/svg">
<path id="logo-apple-white" fill-rule="evenodd" clip-rule="evenodd" d="M16.3789 0C15.0202 0.0569797 13.3739 0.90498 12.3995 2.04507C11.5236 3.05756 10.7591 4.67343 10.9652 6.2228C12.4821 6.34145 14.0278 5.45288 14.972 4.31221C15.9144 3.16948 16.5524 1.58365 16.3789 0ZM15.9948 26.964C17.8357 26.9297 19.0017 25.2939 20.1289 23.6479C21.364 21.845 21.9094 20.097 21.9907 19.8363C21.9952 19.8218 21.9983 19.8119 22 19.8069C21.9992 19.8065 21.9969 19.8056 21.9932 19.8041C21.8161 19.7322 18.4088 18.348 18.3749 14.347C18.3416 11.043 20.9787 9.39943 21.2691 9.21849C21.2792 9.2122 21.2864 9.20768 21.2906 9.20492C19.7033 6.88564 17.2317 6.56762 16.3511 6.5313C15.0647 6.40133 13.8167 6.89262 12.797 7.29403C12.149 7.54912 11.5932 7.76791 11.1784 7.76791C10.7167 7.76791 10.1456 7.54148 9.5048 7.28738C8.66605 6.95479 7.70769 6.57478 6.71831 6.59296C4.42666 6.62724 2.31191 7.92552 1.13173 9.97748C-1.25152 14.1093 0.520555 20.2318 2.84234 23.582C3.97881 25.2206 5.33017 27.0647 7.10737 26.9983C7.90088 26.9664 8.46561 26.7262 9.04964 26.4777C9.72462 26.1905 10.4254 25.8924 11.5349 25.8924C12.5916 25.8924 13.2599 26.1813 13.9028 26.4592C14.5176 26.725 15.1091 26.9807 15.9948 26.964Z" fill="#00B6A6"/>
</svg>
