<svg width="31" height="32" viewBox="0 0 31 32" fill="none" xmlns="http://www.w3.org/2000/svg">
<g id="devolvemos">
<path id="Path" d="M21.5092 8.82338C21.1018 9.27144 20.4486 9.40983 19.8908 9.16626C18.5363 8.57474 17.0391 8.26212 15.4873 8.26212C10.0081 8.26212 5.62369 12.1501 5.62369 16.8673C5.62369 18.9626 6.4859 20.9451 8.0378 22.5044C8.58327 23.0524 8.5755 23.9333 8.02045 24.4719C7.46539 25.0105 6.57324 25.0028 6.02777 24.4548C3.96963 22.3869 2.80551 19.7102 2.80551 16.8673C2.80551 10.5427 8.51509 5.47951 15.4873 5.47951C17.1008 5.47951 18.6736 5.75057 20.1413 6.27032C22.3687 4.43653 25.5762 4.11123 28.1744 5.59238C28.8484 5.97657 29.0793 6.82748 28.6902 7.49293L26.5075 11.2257C27.0617 12.0975 27.486 13.0331 27.7671 14.0112H28.1691C29.7256 14.0112 30.9873 15.257 30.9873 16.7938V19.5764C30.9873 21.1132 29.7256 22.359 28.1691 22.359H26.6011C26.2398 22.9478 25.8213 23.5063 25.351 24.0282V28.3287C25.351 29.8655 24.0892 31.1113 22.5328 31.1113H19.7146C18.1582 31.1113 16.8964 29.8655 16.8964 28.3287V28.1856C16.4309 28.2318 15.9607 28.2551 15.4873 28.2551C15.0139 28.2551 14.5437 28.2318 14.0782 28.1856V28.3287C14.0782 29.8655 12.8165 31.1113 11.2601 31.1113H8.44187C6.88544 31.1113 5.62369 29.8655 5.62369 28.3287C5.62369 27.5603 6.25456 26.9374 7.03278 26.9374C7.811 26.9374 8.44187 27.5603 8.44187 28.3287H11.2601V26.5489C11.2601 25.6539 12.1034 24.9918 12.9865 25.1933C13.7956 25.378 14.6338 25.4725 15.4873 25.4725C16.3409 25.4725 17.179 25.378 17.9882 25.1933C18.8712 24.9918 19.7146 25.6539 19.7146 26.5489V28.3287H22.5328V23.4796C22.5328 23.1148 22.6779 22.7646 22.9369 22.5044C23.5828 21.8554 24.1139 21.127 24.5115 20.3441C24.7505 19.8735 25.238 19.5764 25.7712 19.5764H28.1691V16.7938H26.6399C25.9494 16.7938 25.3607 16.2998 25.2493 15.627C25.0411 14.3699 24.5165 13.1778 23.716 12.1241C23.3774 11.6783 23.3408 11.0761 23.623 10.5936L25.4244 7.5128C24.0035 7.25227 22.508 7.72506 21.5092 8.82338Z" fill="white"/>
<path id="Combined Shape" fill-rule="evenodd" clip-rule="evenodd" d="M15.9723 13.2297H16.8674C17.3861 13.2297 17.8066 13.6515 17.8066 14.1717C17.8066 14.692 17.3861 15.1137 16.8674 15.1137H15.0331H14.0925L14.0778 16.0557H15.9428C16.9687 16.0557 17.8049 16.8814 17.8209 17.9103L17.8356 18.8523C17.8518 19.8927 17.0241 20.7492 15.9868 20.7655L15.9722 20.7656C15.9679 21.2821 15.5491 21.6995 15.0331 21.6995C14.5172 21.6995 14.0984 21.2822 14.094 20.7657H13.1548C12.6361 20.7657 12.2156 20.344 12.2156 19.8237C12.2156 19.3035 12.6361 18.8817 13.1548 18.8817L15.0331 18.8817L15.9575 18.8817L15.9428 17.9397H14.0778L14.0484 17.9395C13.0112 17.9232 12.1835 17.0667 12.1997 16.0263L12.2144 15.0843C12.2304 14.0554 13.0665 13.2297 14.0925 13.2297H14.0939C14.0939 12.7095 14.5144 12.2877 15.0331 12.2877C15.5518 12.2877 15.9723 12.7095 15.9723 13.2297Z" fill="#A7FAF2"/>
<path id="Path_2" d="M16.5746 6.39691L13.8197 6.98318C13.6164 6.0521 12.9496 5.2824 12.0272 4.9509C10.5646 4.42529 8.94746 5.16988 8.41512 6.61399C8.119 7.41732 8.21334 8.29044 8.6535 9.00863L6.24241 10.4493C5.36504 9.01769 5.17576 7.26592 5.7669 5.66228C6.83157 2.77406 10.0659 1.28488 12.9911 2.33611C14.8336 2.99825 16.1693 4.54012 16.5746 6.39691Z" fill="white"/>
<path id="Path_3" d="M0.00343423 15.8895C-0.0504109 15.1229 0.535299 14.4584 1.31165 14.4052C2.08801 14.3521 2.76102 14.9304 2.81486 15.697C2.81677 15.7242 2.8463 15.8545 2.90271 15.9592C2.93297 16.0154 2.94412 16.0259 2.95227 16.0288C3.05611 16.0654 3.29568 16.0492 3.72359 15.8863C4.44974 15.61 5.26529 15.9672 5.54516 16.6842C5.82504 17.4011 5.46326 18.2064 4.73711 18.4827C2.75188 19.2382 1.1786 18.6836 0.414826 17.2663C0.139986 16.7564 0.0303075 16.2721 0.00343423 15.8895Z" fill="white"/>
</g>
</svg>
