<svg width="19" height="16" viewBox="0 0 19 16" fill="none" xmlns="http://www.w3.org/2000/svg">
<path id="Shape Copy" d="M19 2.07001C18.3007 2.36884 17.5503 2.5715 16.762 2.66197C17.567 2.19711 18.1832 1.45976 18.4752 0.583864C17.7201 1.01436 16.8866 1.32695 15.9985 1.49641C15.2874 0.764786 14.2758 0.309082 13.1538 0.309082C11.0013 0.309082 9.25596 1.99217 9.25596 4.06684C9.25596 4.36108 9.29039 4.64847 9.35689 4.92328C6.11801 4.7664 3.24599 3.26995 1.32379 0.996036C0.987784 1.55021 0.796635 2.19594 0.796635 2.88523C0.796635 4.18935 1.48526 5.34003 2.53008 6.01324C1.89131 5.99265 1.29054 5.82319 0.764596 5.54152V5.58847C0.764596 7.40895 2.1086 8.9283 3.89069 9.2741C3.56418 9.35883 3.21988 9.40577 2.8637 9.40577C2.61201 9.40577 2.36861 9.38173 2.12996 9.33592C2.62623 10.8301 4.06523 11.9166 5.77017 11.9464C4.43685 12.954 2.75566 13.5528 0.929636 13.5528C0.615017 13.5528 0.305118 13.5345 0 13.5013C1.72512 14.5696 3.77318 15.1924 5.97439 15.1924C13.1444 15.1924 17.0636 9.46532 17.0636 4.4985L17.0505 4.0119C17.8163 3.48518 18.4788 2.8234 19 2.07001Z" fill="white"/>
</svg>
