<svg width="32" height="24" viewBox="0 0 32 24" fill="none" xmlns="http://www.w3.org/2000/svg">
<g id="cartao">
<path id="Path" d="M29.0909 9.88235C29.0909 9.10266 29.7421 8.47059 30.5455 8.47059C31.3488 8.47059 32 9.10266 32 9.88235V18.3529C32 21.4717 29.3951 24 26.1818 24H5.81818C2.60489 24 0 21.4717 0 18.3529V5.64706C0 2.52827 2.60489 0 5.81818 0L27.6364 0C30.0463 0 32 1.89621 32 4.23529C32 5.01499 31.3488 5.64706 30.5455 5.64706C29.7421 5.64706 29.0909 5.01499 29.0909 4.23529C29.0909 3.4556 28.4397 2.82353 27.6364 2.82353H5.81818C4.21154 2.82353 2.90909 4.08767 2.90909 5.64706V18.3529C2.90909 19.9123 4.21154 21.1765 5.81818 21.1765H26.1818C27.7885 21.1765 29.0909 19.9123 29.0909 18.3529V9.88235Z" fill="white"/>
<path id="Path_2" d="M5.81818 7.05888C5.01486 7.05888 4.36364 6.42681 4.36364 5.64712C4.36364 4.86742 5.01486 4.23535 5.81818 4.23535H11.6364C12.4397 4.23535 13.0909 4.86742 13.0909 5.64712C13.0909 6.42681 12.4397 7.05888 11.6364 7.05888H5.81818Z" fill="white"/>
<path id="Combined Shape" fill-rule="evenodd" clip-rule="evenodd" d="M20.8482 17.7907C22.208 18.5336 23.977 18.3553 25.1404 17.2559C26.529 15.9437 26.529 13.8163 25.1404 12.5041C23.977 11.4047 22.208 11.2265 20.8482 11.9694C20.3253 11.6836 19.7182 11.52 19.0707 11.52C17.107 11.52 15.5152 13.0243 15.5152 14.88C15.5152 16.7357 17.107 18.24 19.0707 18.24C19.7182 18.24 20.3253 18.0765 20.8482 17.7907ZM22.4297 15.9846C22.7946 16.0423 23.1827 15.9381 23.4643 15.672C23.9272 15.2346 23.9272 14.5254 23.4643 14.0881C23.1827 13.8219 22.7946 13.7177 22.4297 13.7754C22.557 14.1214 22.6263 14.4931 22.6263 14.88C22.6263 15.267 22.557 15.6386 22.4297 15.9846ZM19.0707 16C19.7253 16 20.2559 15.4986 20.2559 14.88C20.2559 14.2615 19.7253 13.76 19.0707 13.76C18.4161 13.76 17.8855 14.2615 17.8855 14.88C17.8855 15.4986 18.4161 16 19.0707 16Z" fill="#A7FAF2"/>
</g>
</svg>
