<svg width="28" height="25" viewBox="0 0 28 25" fill="none" xmlns="http://www.w3.org/2000/svg">
<g id="gerencie">
<path id="Path" d="M25.6364 20.4545C25.6364 19.827 26.1655 19.3182 26.8182 19.3182C27.4709 19.3182 28 19.827 28 20.4545V22.7273C28 23.9825 26.9418 25 25.6364 25H23.2727C21.9673 25 20.9091 23.9825 20.9091 22.7273V2.27273C20.9091 1.01753 21.9673 0 23.2727 0H25.6364C26.9418 0 28 1.01753 28 2.27273V15.9091C28 16.5367 27.4709 17.0455 26.8182 17.0455C26.1655 17.0455 25.6364 16.5367 25.6364 15.9091V2.27273H23.2727V22.7273H25.6364V20.4545Z" fill="white"/>
<path id="Path_2" fill-rule="evenodd" clip-rule="evenodd" d="M4.72727 13.6364H2.36364C1.05824 13.6364 0 14.6539 0 15.9091V22.7273C0 23.9825 1.05824 25 2.36364 25H4.72727C6.03267 25 7.09091 23.9825 7.09091 22.7273V15.9091C7.09091 14.6539 6.03267 13.6364 4.72727 13.6364ZM2.36364 22.7273V15.9091H4.72727V22.7273H2.36364Z" fill="#A7FAF2"/>
<path id="Path_3" fill-rule="evenodd" clip-rule="evenodd" d="M15.1818 9.09094H12.8182C11.5128 9.09094 10.4546 10.1085 10.4546 11.3637V22.7273C10.4546 23.9825 11.5128 25 12.8182 25H15.1818C16.4872 25 17.5455 23.9825 17.5455 22.7273V11.3637C17.5455 10.1085 16.4872 9.09094 15.1818 9.09094ZM12.8182 22.7273V11.3637H15.1818V22.7273H12.8182Z" fill="white"/>
</g>
</svg>
