<svg width="102" height="102" viewBox="0 0 102 102" fill="none" xmlns="http://www.w3.org/2000/svg">
<g filter="url(#filter0_d_1_810)">
<path fill-rule="evenodd" clip-rule="evenodd" d="M51 72C68.1208 72 82 58.1208 82 41C82 23.8792 68.1208 10 51 10C33.8792 10 20 23.8792 20 41C20 58.1208 33.8792 72 51 72Z" fill="white"/>
</g>
<path fill-rule="evenodd" clip-rule="evenodd" d="M34.3768 41C34.3768 31.8193 41.8193 24.3768 51 24.3768C55.4087 24.3768 59.6369 26.1282 62.7544 29.2456C65.8718 32.3631 67.6232 36.5913 67.6232 41C67.6232 50.1807 60.1807 57.6232 51 57.6232C41.8193 57.6232 34.3768 50.1807 34.3768 41ZM45.4589 39.7213C46.4006 39.7213 47.1639 38.958 47.1639 38.0164C47.1639 37.0747 46.4006 36.3114 45.4589 36.3114C44.5173 36.3114 43.754 37.0747 43.754 38.0164C43.754 38.958 44.5173 39.7213 45.4589 39.7213ZM56.7846 46.9446C57.5003 46.3525 57.5992 45.3034 57.0064 44.5917C56.7171 44.2479 56.3008 44.0317 55.8495 43.9908C55.3981 43.9498 54.9488 44.0874 54.6006 44.3732C52.2504 46.2396 48.8971 46.2396 46.547 44.3732C46.1988 44.0874 45.7494 43.9498 45.298 43.9908C44.8467 44.0317 44.4304 44.2479 44.1411 44.5917C43.5483 45.3034 43.6472 46.3525 44.3629 46.9446C47.9902 49.8165 53.1573 49.8165 56.7846 46.9446ZM51 54.2133C43.7025 54.2133 37.7867 48.2975 37.7867 41C37.7867 33.7025 43.7025 27.7867 51 27.7867C58.2975 27.7867 64.2133 33.7025 64.2133 41C64.2133 44.5044 62.8212 47.8652 60.3432 50.3432C57.8652 52.8212 54.5044 54.2133 51 54.2133ZM53.9837 38.0164C53.9837 37.0747 54.747 36.3114 55.6886 36.3114C56.6302 36.3114 57.3935 37.0747 57.3935 38.0164C57.3935 38.958 56.6302 39.7213 55.6886 39.7213C54.747 39.7213 53.9837 38.958 53.9837 38.0164Z" fill="#00B5A5"/>
<path d="M57.0064 44.5917L57.3522 44.3037L57.3507 44.3019L57.0064 44.5917ZM56.7846 46.9446L57.064 47.2975L57.0714 47.2913L56.7846 46.9446ZM55.8495 43.9908L55.8088 44.4389H55.8088L55.8495 43.9908ZM54.6006 44.3732L54.8804 44.7256L54.8861 44.721L54.6006 44.3732ZM46.547 44.3732L46.2614 44.7211L46.2671 44.7256L46.547 44.3732ZM45.298 43.9908L45.3387 44.4389H45.3387L45.298 43.9908ZM44.1411 44.5917L43.7969 44.3019L43.7954 44.3037L44.1411 44.5917ZM44.3629 46.9446L44.076 47.2914L44.0836 47.2974L44.3629 46.9446ZM60.3432 50.3432L60.6614 50.6614L60.3432 50.3432ZM51 23.9268C41.5707 23.9268 33.9268 31.5707 33.9268 41H34.8268C34.8268 32.0678 42.0678 24.8268 51 24.8268V23.9268ZM63.0726 28.9274C59.8707 25.7256 55.5281 23.9268 51 23.9268V24.8268C55.2894 24.8268 59.4031 26.5308 62.4362 29.5638L63.0726 28.9274ZM68.0732 41C68.0732 36.4719 66.2744 32.1293 63.0726 28.9274L62.4362 29.5638C65.4692 32.5969 67.1732 36.7106 67.1732 41H68.0732ZM51 58.0732C60.4293 58.0732 68.0732 50.4293 68.0732 41H67.1732C67.1732 49.9322 59.9322 57.1732 51 57.1732V58.0732ZM33.9268 41C33.9268 50.4293 41.5707 58.0732 51 58.0732V57.1732C42.0678 57.1732 34.8268 49.9322 34.8268 41H33.9268ZM46.7139 38.0164C46.7139 38.7094 46.152 39.2713 45.4589 39.2713V40.1713C46.6491 40.1713 47.6139 39.2065 47.6139 38.0164H46.7139ZM45.4589 36.7614C46.152 36.7614 46.7139 37.3233 46.7139 38.0164H47.6139C47.6139 36.8262 46.6491 35.8614 45.4589 35.8614V36.7614ZM44.204 38.0164C44.204 37.3233 44.7659 36.7614 45.4589 36.7614V35.8614C44.2688 35.8614 43.304 36.8262 43.304 38.0164H44.204ZM45.4589 39.2713C44.7659 39.2713 44.204 38.7094 44.204 38.0164H43.304C43.304 39.2065 44.2688 40.1713 45.4589 40.1713V39.2713ZM56.6606 44.8796C57.0932 45.3991 57.0224 46.1638 56.4977 46.5978L57.0714 47.2913C57.9782 46.5412 58.1052 45.2078 57.3522 44.3037L56.6606 44.8796ZM55.8088 44.4389C56.1432 44.4693 56.4499 44.6294 56.6621 44.8814L57.3507 44.3019C56.9843 43.8665 56.4585 43.5942 55.8902 43.5426L55.8088 44.4389ZM54.8861 44.721C55.1423 44.5107 55.4743 44.4085 55.8088 44.4389L55.8902 43.5426C55.322 43.491 54.7552 43.664 54.3151 44.0253L54.8861 44.721ZM46.2671 44.7256C48.7812 46.7221 52.3664 46.7221 54.8804 44.7256L54.3207 44.0208C52.1344 45.757 49.0131 45.757 46.8268 44.0208L46.2671 44.7256ZM45.3387 44.4389C45.6732 44.4085 46.0052 44.5107 46.2615 44.721L46.8325 44.0253C46.3923 43.664 45.8256 43.491 45.2573 43.5426L45.3387 44.4389ZM44.4854 44.8814C44.6976 44.6294 45.0043 44.4693 45.3387 44.4389L45.2573 43.5426C44.689 43.5942 44.1633 43.8665 43.7969 44.3019L44.4854 44.8814ZM44.6498 46.5978C44.1251 46.1638 44.0543 45.3991 44.4869 44.8796L43.7954 44.3037C43.0424 45.2078 43.1694 46.5412 44.0761 47.2913L44.6498 46.5978ZM56.5052 46.5918C53.0417 49.3341 48.1059 49.3341 44.6423 46.5918L44.0836 47.2974C47.8746 50.2988 53.273 50.2988 57.0639 47.2974L56.5052 46.5918ZM37.3367 41C37.3367 48.546 43.454 54.6633 51 54.6633V53.7633C43.951 53.7633 38.2367 48.049 38.2367 41H37.3367ZM51 27.3367C43.454 27.3367 37.3367 33.454 37.3367 41H38.2367C38.2367 33.951 43.951 28.2367 51 28.2367V27.3367ZM64.6633 41C64.6633 33.454 58.546 27.3367 51 27.3367V28.2367C58.049 28.2367 63.7633 33.951 63.7633 41H64.6633ZM60.6614 50.6614C63.2238 48.0991 64.6633 44.6237 64.6633 41H63.7633C63.7633 44.385 62.4186 47.6314 60.025 50.025L60.6614 50.6614ZM51 54.6633C54.6237 54.6633 58.099 53.2238 60.6614 50.6614L60.025 50.025C57.6314 52.4186 54.385 53.7633 51 53.7633V54.6633ZM55.6886 35.8614C54.4985 35.8614 53.5336 36.8262 53.5336 38.0164H54.4337C54.4337 37.3233 54.9955 36.7614 55.6886 36.7614V35.8614ZM57.8435 38.0164C57.8435 36.8262 56.8787 35.8614 55.6886 35.8614V36.7614C56.3817 36.7614 56.9435 37.3233 56.9435 38.0164H57.8435ZM55.6886 40.1713C56.8787 40.1713 57.8435 39.2065 57.8435 38.0164H56.9435C56.9435 38.7094 56.3817 39.2713 55.6886 39.2713V40.1713ZM53.5336 38.0164C53.5336 39.2065 54.4985 40.1713 55.6886 40.1713V39.2713C54.9955 39.2713 54.4337 38.7094 54.4337 38.0164H53.5336Z" fill="white"/>
<defs>
<filter id="filter0_d_1_810" x="0" y="0" width="102" height="102" filterUnits="userSpaceOnUse" color-interpolation-filters="sRGB">
<feFlood flood-opacity="0" result="BackgroundImageFix"/>
<feColorMatrix in="SourceAlpha" type="matrix" values="0 0 0 0 0 0 0 0 0 0 0 0 0 0 0 0 0 0 127 0" result="hardAlpha"/>
<feOffset dy="10"/>
<feGaussianBlur stdDeviation="10"/>
<feColorMatrix type="matrix" values="0 0 0 0 0.0576979 0 0 0 0 0.408911 0 0 0 0 0.377921 0 0 0 0.2 0"/>
<feBlend mode="normal" in2="BackgroundImageFix" result="effect1_dropShadow_1_810"/>
<feBlend mode="normal" in="SourceGraphic" in2="effect1_dropShadow_1_810" result="shape"/>
</filter>
</defs>
</svg>
