<svg width="19" height="19" viewBox="0 0 19 19" fill="none" xmlns="http://www.w3.org/2000/svg">
<path id="Combined Shape" fill-rule="evenodd" clip-rule="evenodd" d="M5.2432 0.199951H13.7566C16.6479 0.199951 19.0001 2.52741 19 5.38807V13.8118C19 16.6725 16.6479 19 13.7566 19H5.2432C2.3521 19 0 16.6726 0 13.8118V5.38807C0 2.52741 2.3521 0.199951 5.2432 0.199951ZM13.7567 17.3319C15.7184 17.3319 17.3143 15.7529 17.3143 13.8118H17.3142V5.38807C17.3142 3.44716 15.7183 1.86798 13.7566 1.86798H5.2432C3.28164 1.86798 1.68577 3.44716 1.68577 5.38807V13.8118C1.68577 15.7529 3.28164 17.332 5.2432 17.3319H13.7567ZM4.75 9.60006C4.75 7.00838 6.88081 4.89995 9.5 4.89995C12.1192 4.89995 14.25 7.00838 14.25 9.60006C14.25 12.1916 12.1192 14.3 9.5 14.3C6.88081 14.3 4.75 12.1916 4.75 9.60006ZM6.38556 9.59995C6.38556 11.2991 7.78277 12.6815 9.5 12.6815C11.2172 12.6815 12.6144 11.2991 12.6144 9.59995C12.6144 7.90065 11.2173 6.51823 9.5 6.51823C7.78266 6.51823 6.38556 7.90065 6.38556 9.59995ZM13.807 3.67724C14.0274 3.45826 14.3338 3.33328 14.6458 3.33328C14.9589 3.33328 15.2655 3.45826 15.4857 3.67724C15.707 3.89515 15.8333 4.19851 15.8333 4.50828C15.8333 4.81699 15.707 5.12035 15.4857 5.33933C15.2644 5.55724 14.9589 5.68328 14.6458 5.68328C14.3338 5.68328 14.0273 5.55724 13.807 5.33933C13.5857 5.12035 13.4583 4.8171 13.4583 4.50828C13.4583 4.19851 13.5856 3.89515 13.807 3.67724Z" fill="white"/>
</svg>
