<svg width="19" height="19" viewBox="0 0 19 19" fill="none" xmlns="http://www.w3.org/2000/svg">
<path id="fcebook" d="M16.431 0H2.55896C1.14571 0 0 1.13361 0 2.53202V16.2581C0 17.6566 1.14567 18.7902 2.55896 18.7902H9.40059L9.41225 12.0756H7.64924C7.42013 12.0756 7.23417 11.8923 7.23329 11.6656L7.22483 9.50117C7.22395 9.27323 7.41046 9.08798 7.64083 9.08798H9.40063V6.99663C9.40063 4.56964 10.8987 3.24813 13.0867 3.24813H14.8822C15.1119 3.24813 15.2982 3.4324 15.2982 3.65975V5.48477C15.2982 5.71203 15.1121 5.89626 14.8824 5.8964L13.7806 5.8969C12.5906 5.8969 12.3602 6.4564 12.3602 7.27748V9.08803H14.9749C15.2241 9.08803 15.4174 9.30329 15.388 9.5481L15.1287 11.7125C15.1039 11.9196 14.9264 12.0757 14.7157 12.0757H12.3719L12.3602 18.7903H16.4311C17.8443 18.7903 18.99 17.6566 18.99 16.2583V2.53202C18.99 1.13361 17.8443 0 16.431 0Z" fill="white"/>
</svg>
