<svg width="441" height="70" viewBox="0 0 441 70" fill="none" xmlns="http://www.w3.org/2000/svg">
<rect x="231.475" y="0.475" width="208.805" height="69.05" rx="7.6475" stroke="white" stroke-width="0.95"/>
<path fill-rule="evenodd" clip-rule="evenodd" d="M316.298 41.1192V43.1827H321.214C321.137 44.1546 320.736 45.0716 320.076 45.7849C319.082 46.8054 317.705 47.355 316.287 47.2981C313.271 47.2981 310.825 44.8345 310.825 41.7956C310.825 38.7566 313.271 36.293 316.287 36.293C317.673 36.2703 319.011 36.8021 320.008 37.7718L321.453 36.316C320.093 34.9287 318.234 34.1554 316.298 34.1723C313.544 34.0642 310.951 35.4833 309.542 37.8705C308.132 40.2577 308.132 43.2303 309.542 45.6175C310.951 48.0046 313.544 49.4237 316.298 49.3157C318.269 49.4054 320.182 48.6321 321.544 47.1949C322.736 45.8754 323.373 44.1408 323.319 42.3573C323.323 41.9228 323.285 41.489 323.205 41.0619L316.298 41.1192ZM328.917 39.6175C326.248 39.6238 324.089 41.8079 324.093 44.4971C324.097 47.1864 326.263 49.3637 328.932 49.3615C331.602 49.3594 333.765 47.1788 333.765 44.4895C333.783 43.1877 333.277 41.9339 332.361 41.0155C331.445 40.097 330.198 39.5925 328.906 39.6175H328.917ZM334.698 44.5047C334.689 41.817 336.843 39.6301 339.511 39.6175C340.803 39.5925 342.05 40.097 342.966 41.0155C343.881 41.9339 344.388 43.1877 344.369 44.4895C344.369 47.1773 342.209 49.3573 339.541 49.3615C336.873 49.3657 334.706 47.1925 334.698 44.5047ZM336.657 45.7717C337.177 46.8674 338.308 47.5319 339.511 47.4471C340.265 47.4295 340.981 47.1055 341.495 46.5486C342.009 45.9917 342.279 45.2492 342.242 44.4895C342.239 43.2751 341.499 42.1859 340.377 41.7429C339.255 41.2999 337.977 41.5931 337.156 42.4823C336.335 43.3715 336.137 44.6759 336.657 45.7717ZM326.056 45.7804C326.579 46.8755 327.714 47.5366 328.917 47.4471H328.906C329.661 47.4295 330.376 47.1055 330.89 46.5486C331.405 45.9917 331.674 45.2492 331.637 44.4895C331.633 43.2741 330.893 42.1845 329.769 41.7425C328.645 41.3005 327.367 41.596 326.547 42.4876C325.728 43.3792 325.533 44.6853 326.056 45.7804ZM363.713 39.6175C365.599 39.6875 367.247 40.9234 367.855 42.7241L368.094 43.24L361.619 45.9339C362.025 46.865 362.955 47.4515 363.963 47.4127C364.937 47.4152 365.84 46.9014 366.341 46.06L367.991 47.2064C367.093 48.5608 365.58 49.3703 363.963 49.3616C362.678 49.3805 361.441 48.8722 360.535 47.9533C359.629 47.0345 359.134 45.7841 359.162 44.4895C359.083 43.2245 359.527 41.9832 360.39 41.0602C361.252 40.1372 362.455 39.615 363.713 39.6175ZM361.255 44.352C361.209 43.6357 361.45 42.9306 361.925 42.3958C362.401 41.861 363.069 41.5413 363.781 41.509C364.532 41.4592 365.239 41.8651 365.579 42.5407L361.255 44.352ZM358.126 49.075H355.998V34.7454H358.126V49.075ZM352.516 40.7065H352.437C351.788 39.9759 350.861 39.5589 349.888 39.5602C347.305 39.6863 345.275 41.8328 345.275 44.4379C345.275 47.0431 347.305 49.1895 349.888 49.3157C350.864 49.3322 351.797 48.9125 352.437 48.1693H352.505V48.8686C352.505 50.7372 351.515 51.7345 349.922 51.7345C348.837 51.7089 347.875 51.025 347.487 50.0035L345.632 50.7831C346.347 52.5333 348.044 53.6717 349.922 53.6604C352.414 53.6604 354.474 52.1816 354.474 48.582V39.9041H352.516V40.7065ZM350.078 47.4468L350.081 47.4471H350.07L350.078 47.4468ZM351.995 46.5275C351.507 47.0842 350.814 47.4161 350.078 47.4468C348.558 47.3101 347.393 46.0271 347.393 44.4895C347.393 42.9508 348.56 41.667 350.081 41.5319C350.817 41.5699 351.505 41.9054 351.992 42.4622C352.478 43.019 352.721 43.75 352.664 44.4895C352.727 45.2324 352.485 45.9688 351.995 46.5275ZM377.822 34.7454H372.736V49.075H374.864V43.6412H377.834C379.487 43.7609 381.068 42.9402 381.93 41.5147C382.793 40.0891 382.793 38.2975 381.93 36.872C381.068 35.4464 379.487 34.6258 377.834 34.7454H377.822ZM374.853 41.6236H377.822L377.868 41.658C379.216 41.658 380.309 40.5571 380.309 39.1991C380.309 37.841 379.216 36.7401 377.868 36.7401H374.853V41.6236ZM390.942 39.5602C389.359 39.4648 387.87 40.3249 387.153 41.7497L389.042 42.5407C389.422 41.8342 390.181 41.4205 390.976 41.4861C391.522 41.4218 392.07 41.5812 392.498 41.9282C392.926 42.2753 393.198 42.781 393.252 43.3317V43.4807C392.568 43.1162 391.806 42.9272 391.033 42.9305C388.996 42.9305 386.937 44.0768 386.937 46.1517C386.977 47.0456 387.375 47.8849 388.039 48.4786C388.704 49.0724 389.578 49.3702 390.464 49.3042C391.556 49.3832 392.603 48.8557 393.195 47.9286H393.263V49.075H395.311V43.561C395.311 41.0504 393.422 39.5946 390.999 39.5946L390.942 39.5602ZM389.019 46.1976C389.019 47.0574 389.986 47.4127 390.68 47.4127L390.737 47.4471C392.019 47.4157 393.082 46.4377 393.229 45.1544C392.639 44.8224 391.971 44.6561 391.295 44.6729C390.225 44.6729 389.019 45.0512 389.019 46.1976ZM402.776 39.9041L400.341 46.1174H400.272L397.746 39.9041H395.471L399.26 48.5935L397.098 53.4197H399.317L405.142 39.9041H402.776ZM385.776 49.075H383.648V34.7454H385.776V49.075Z" fill="white"/>
<path d="M309.356 27.9215V20.4145H311.475C312.128 20.4145 312.706 20.5589 313.207 20.8476C313.709 21.1364 314.096 21.5471 314.368 22.0799C314.643 22.6127 314.782 23.2245 314.785 23.9154V24.3949C314.785 25.103 314.648 25.7234 314.373 26.2562C314.101 26.7889 313.711 27.198 313.202 27.4833C312.697 27.7686 312.108 27.9146 311.434 27.9215H309.356ZM310.346 21.2292V27.112H311.387C312.15 27.112 312.743 26.8749 313.166 26.4005C313.592 25.9262 313.806 25.2508 313.806 24.3743V23.936C313.806 23.0836 313.604 22.4219 313.202 21.951C312.804 21.4767 312.236 21.236 311.501 21.2292H310.346ZM315.883 25.0806C315.883 24.5341 315.99 24.0426 316.203 23.606C316.42 23.1695 316.719 22.8327 317.1 22.5955C317.485 22.3583 317.923 22.2397 318.415 22.2397C319.175 22.2397 319.788 22.5027 320.256 23.0286C320.726 23.5545 320.962 24.254 320.962 25.127V25.194C320.962 25.7371 320.857 26.2252 320.647 26.6583C320.441 27.088 320.144 27.4231 319.755 27.6637C319.37 27.9043 318.927 28.0246 318.425 28.0246C317.669 28.0246 317.055 27.7617 316.585 27.2358C316.117 26.7099 315.883 26.0138 315.883 25.1476V25.0806ZM316.842 25.194C316.842 25.8128 316.985 26.3094 317.27 26.6841C317.559 27.0588 317.944 27.2461 318.425 27.2461C318.91 27.2461 319.295 27.057 319.58 26.6789C319.865 26.2974 320.008 25.7646 320.008 25.0806C320.008 24.4688 319.862 23.9738 319.57 23.5957C319.281 23.2142 318.896 23.0234 318.415 23.0234C317.944 23.0234 317.564 23.2107 317.275 23.5854C316.987 23.9601 316.842 24.4963 316.842 25.194ZM327.097 26.6068L328.17 22.3428H329.124L327.5 27.9215H326.726L325.37 23.6937L324.05 27.9215H323.277L321.658 22.3428H322.607L323.705 26.5191L325.004 22.3428H325.772L327.097 26.6068ZM331 22.3428L331.031 23.044C331.458 22.5078 332.014 22.2397 332.702 22.2397C333.881 22.2397 334.475 22.9048 334.486 24.2351V27.9215H333.532V24.2299C333.529 23.8277 333.436 23.5304 333.254 23.3379C333.075 23.1454 332.795 23.0492 332.413 23.0492C332.104 23.0492 331.832 23.1317 331.598 23.2967C331.365 23.4617 331.183 23.6782 331.052 23.9463V27.9215H330.098V22.3428H331ZM336.961 27.9215H336.007V20.0021H336.961V27.9215ZM338.239 25.0806C338.239 24.5341 338.346 24.0426 338.559 23.606C338.775 23.1695 339.075 22.8327 339.456 22.5955C339.841 22.3583 340.279 22.2397 340.771 22.2397C341.53 22.2397 342.144 22.5027 342.611 23.0286C343.082 23.5545 343.318 24.254 343.318 25.127V25.194C343.318 25.7371 343.213 26.2252 343.003 26.6583C342.797 27.088 342.5 27.4231 342.111 27.6637C341.726 27.9043 341.283 28.0246 340.781 28.0246C340.025 28.0246 339.411 27.7617 338.94 27.2358C338.473 26.7099 338.239 26.0138 338.239 25.1476V25.0806ZM339.198 25.194C339.198 25.8128 339.341 26.3094 339.626 26.6841C339.915 27.0588 340.3 27.2461 340.781 27.2461C341.266 27.2461 341.651 27.057 341.936 26.6789C342.221 26.2974 342.364 25.7646 342.364 25.0806C342.364 24.4688 342.218 23.9738 341.926 23.5957C341.637 23.2142 341.252 23.0234 340.771 23.0234C340.3 23.0234 339.92 23.2107 339.631 23.5854C339.343 23.9601 339.198 24.4963 339.198 25.194ZM347.958 27.9215C347.903 27.8115 347.858 27.6156 347.824 27.3337C347.381 27.7943 346.851 28.0246 346.236 28.0246C345.686 28.0246 345.234 27.8699 344.88 27.5606C344.529 27.2478 344.354 26.8525 344.354 26.3747C344.354 25.7938 344.574 25.3436 345.014 25.0239C345.458 24.7008 346.08 24.5392 346.881 24.5392H347.809V24.101C347.809 23.7676 347.709 23.5029 347.51 23.307C347.31 23.1076 347.016 23.008 346.628 23.008C346.288 23.008 346.002 23.0939 345.772 23.2657C345.542 23.4376 345.427 23.6456 345.427 23.8896H344.468C344.468 23.6112 344.566 23.3431 344.761 23.0853C344.961 22.8241 345.229 22.6178 345.566 22.4666C345.906 22.3153 346.279 22.2397 346.685 22.2397C347.327 22.2397 347.831 22.4013 348.195 22.7244C348.56 23.044 348.749 23.4857 348.762 24.0494V26.6171C348.762 27.1292 348.828 27.5365 348.958 27.839V27.9215H347.958ZM346.375 27.1945C346.674 27.1945 346.958 27.1172 347.226 26.9625C347.494 26.8078 347.688 26.6068 347.809 26.3593V25.2147H347.061C345.892 25.2147 345.308 25.5567 345.308 26.2407C345.308 26.5397 345.408 26.7735 345.607 26.9419C345.806 27.1103 346.062 27.1945 346.375 27.1945ZM350.026 25.0858C350.026 24.2299 350.228 23.5424 350.634 23.0234C351.04 22.501 351.571 22.2397 352.227 22.2397C352.88 22.2397 353.398 22.4631 353.779 22.91V20.0021H354.733V27.9215H353.856L353.81 27.3234C353.429 27.7909 352.897 28.0246 352.217 28.0246C351.571 28.0246 351.043 27.76 350.634 27.2306C350.228 26.7013 350.026 26.0104 350.026 25.158V25.0858ZM350.979 25.194C350.979 25.8265 351.11 26.3215 351.371 26.6789C351.633 27.0364 351.993 27.2152 352.454 27.2152C353.059 27.2152 353.501 26.9436 353.779 26.4005V23.838C353.494 23.3121 353.056 23.0492 352.464 23.0492C351.997 23.0492 351.633 23.2297 351.371 23.5906C351.11 23.9515 350.979 24.486 350.979 25.194ZM360.678 26.6274L362.059 22.3428H363.034L361.033 27.9215H360.306L358.285 22.3428H359.26L360.678 26.6274ZM364.988 27.9215H364.034V22.3428H364.988V27.9215ZM363.957 20.8631C363.957 20.7084 364.003 20.5778 364.096 20.4713C364.192 20.3647 364.333 20.3114 364.519 20.3114C364.704 20.3114 364.845 20.3647 364.942 20.4713C365.038 20.5778 365.086 20.7084 365.086 20.8631C365.086 21.0178 365.038 21.1467 364.942 21.2498C364.845 21.3529 364.704 21.4045 364.519 21.4045C364.333 21.4045 364.192 21.3529 364.096 21.2498C364.003 21.1467 363.957 21.0178 363.957 20.8631ZM369.963 27.9215C369.908 27.8115 369.864 27.6156 369.829 27.3337C369.386 27.7943 368.857 28.0246 368.241 28.0246C367.691 28.0246 367.239 27.8699 366.885 27.5606C366.535 27.2478 366.359 26.8525 366.359 26.3747C366.359 25.7938 366.579 25.3436 367.019 25.0239C367.463 24.7008 368.085 24.5392 368.886 24.5392H369.814V24.101C369.814 23.7676 369.714 23.5029 369.515 23.307C369.315 23.1076 369.022 23.008 368.633 23.008C368.293 23.008 368.008 23.0939 367.777 23.2657C367.547 23.4376 367.432 23.6456 367.432 23.8896H366.473C366.473 23.6112 366.571 23.3431 366.767 23.0853C366.966 22.8241 367.234 22.6178 367.571 22.4666C367.911 22.3153 368.284 22.2397 368.69 22.2397C369.333 22.2397 369.836 22.4013 370.201 22.7244C370.565 23.044 370.754 23.4857 370.768 24.0494V26.6171C370.768 27.1292 370.833 27.5365 370.964 27.839V27.9215H369.963ZM368.381 27.1945C368.68 27.1945 368.963 27.1172 369.231 26.9625C369.499 26.8078 369.694 26.6068 369.814 26.3593V25.2147H369.066C367.898 25.2147 367.313 25.5567 367.313 26.2407C367.313 26.5397 367.413 26.7735 367.612 26.9419C367.812 27.1103 368.068 27.1945 368.381 27.1945Z" fill="white"/>
<path fill-rule="evenodd" clip-rule="evenodd" d="M265.494 20.9596V49.0012C265.494 49.9772 266.058 50.8211 266.878 51.2238L283.105 34.9756L266.885 18.7338C266.061 19.1352 265.494 19.981 265.494 20.9596ZM270.515 50.3815L288.251 40.1282L284.503 36.3752L270.515 50.3815ZM293.765 33.0145C294.354 33.4666 294.735 34.1791 294.735 34.9804C294.735 35.7697 294.366 36.4725 293.791 36.9255L290.024 39.1035L285.901 34.9756L290.021 30.8503L293.765 33.0145ZM288.249 29.8257L270.525 19.58L284.503 33.5758L288.249 29.8257Z" fill="white"/>
<rect x="0.475" y="0.475" width="208.805" height="69.05" rx="7.6475" stroke="white" stroke-width="0.95"/>
<path d="M75.4646 27.2469V19.74H77.5837C78.2368 19.74 78.8142 19.8843 79.3161 20.1731C79.8179 20.4618 80.2046 20.8726 80.4761 21.4053C80.7511 21.9381 80.8903 22.5499 80.8938 23.2408V23.7203C80.8938 24.4284 80.7563 25.0488 80.4813 25.5816C80.2097 26.1144 79.8196 26.5234 79.3109 26.8087C78.8056 27.094 78.2161 27.2401 77.5424 27.2469H75.4646ZM76.4545 20.5546V26.4375H77.496C78.2591 26.4375 78.852 26.2003 79.2748 25.726C79.701 25.2516 79.9141 24.5762 79.9141 23.6997V23.2615C79.9141 22.409 79.7131 21.7473 79.3109 21.2764C78.9122 20.8021 78.345 20.5615 77.6095 20.5546H76.4545ZM81.992 24.4061C81.992 23.8595 82.0985 23.368 82.3116 22.9315C82.5282 22.4949 82.8272 22.1581 83.2087 21.9209C83.5937 21.6837 84.032 21.5652 84.5235 21.5652C85.2831 21.5652 85.8967 21.8281 86.3641 22.354C86.835 22.8799 87.0705 23.5794 87.0705 24.4525V24.5195C87.0705 25.0626 86.9657 25.5507 86.756 25.9838C86.5498 26.4134 86.2524 26.7485 85.864 26.9892C85.4791 27.2298 85.0356 27.3501 84.5338 27.3501C83.7776 27.3501 83.1641 27.0871 82.6932 26.5612C82.2257 26.0353 81.992 25.3393 81.992 24.4731V24.4061ZM82.9509 24.5195C82.9509 25.1382 83.0936 25.6349 83.3789 26.0095C83.6676 26.3842 84.0526 26.5715 84.5338 26.5715C85.0185 26.5715 85.4034 26.3825 85.6887 26.0044C85.974 25.6228 86.1167 25.0901 86.1167 24.4061C86.1167 23.7942 85.9706 23.2993 85.6784 22.9212C85.3897 22.5396 85.0047 22.3489 84.5235 22.3489C84.0526 22.3489 83.6728 22.5362 83.384 22.9109C83.0953 23.2855 82.9509 23.8217 82.9509 24.5195ZM93.206 25.9322L94.2784 21.6683H95.2323L93.6082 27.2469H92.8348L91.4788 23.0191L90.1589 27.2469H89.3855L87.7665 21.6683H88.7152L89.8134 25.8445L91.1127 21.6683H91.8809L93.206 25.9322ZM97.109 21.6683L97.1399 22.3695C97.5662 21.8333 98.123 21.5652 98.8104 21.5652C99.9894 21.5652 100.584 22.2303 100.594 23.5605V27.2469H99.6405V23.5553C99.6371 23.1532 99.5443 22.8559 99.3621 22.6634C99.1834 22.4709 98.9033 22.3746 98.5217 22.3746C98.2124 22.3746 97.9408 22.4571 97.7071 22.6221C97.4734 22.7871 97.2912 23.0037 97.1606 23.2718V27.2469H96.2067V21.6683H97.109ZM103.069 27.2469H102.115V19.3275H103.069V27.2469ZM104.348 24.4061C104.348 23.8595 104.454 23.368 104.668 22.9315C104.884 22.4949 105.183 22.1581 105.565 21.9209C105.95 21.6837 106.388 21.5652 106.879 21.5652C107.639 21.5652 108.253 21.8281 108.72 22.354C109.191 22.8799 109.426 23.5794 109.426 24.4525V24.5195C109.426 25.0626 109.322 25.5507 109.112 25.9838C108.906 26.4134 108.608 26.7485 108.22 26.9892C107.835 27.2298 107.392 27.3501 106.89 27.3501C106.134 27.3501 105.52 27.0871 105.049 26.5612C104.582 26.0353 104.348 25.3393 104.348 24.4731V24.4061ZM105.307 24.5195C105.307 25.1382 105.45 25.6349 105.735 26.0095C106.024 26.3842 106.409 26.5715 106.89 26.5715C107.374 26.5715 107.759 26.3825 108.045 26.0044C108.33 25.6228 108.473 25.0901 108.473 24.4061C108.473 23.7942 108.326 23.2993 108.034 22.9212C107.746 22.5396 107.361 22.3489 106.879 22.3489C106.409 22.3489 106.029 22.5362 105.74 22.9109C105.451 23.2855 105.307 23.8217 105.307 24.5195ZM114.067 27.2469C114.012 27.137 113.967 26.941 113.933 26.6592C113.489 27.1198 112.96 27.3501 112.345 27.3501C111.795 27.3501 111.343 27.1954 110.989 26.886C110.638 26.5732 110.463 26.178 110.463 25.7002C110.463 25.1193 110.683 24.669 111.123 24.3493C111.566 24.0262 112.188 23.8647 112.989 23.8647H113.917V23.4264C113.917 23.093 113.818 22.8284 113.618 22.6324C113.419 22.4331 113.125 22.3334 112.736 22.3334C112.396 22.3334 112.111 22.4193 111.881 22.5912C111.65 22.763 111.535 22.971 111.535 23.215H110.576C110.576 22.9366 110.674 22.6685 110.87 22.4107C111.069 22.1495 111.338 21.9433 111.674 21.792C112.015 21.6408 112.388 21.5652 112.793 21.5652C113.436 21.5652 113.94 21.7267 114.304 22.0498C114.668 22.3695 114.857 22.8112 114.871 23.3749V25.9425C114.871 26.4547 114.936 26.862 115.067 27.1645V27.2469H114.067ZM112.484 26.52C112.783 26.52 113.066 26.4426 113.335 26.288C113.603 26.1333 113.797 25.9322 113.917 25.6847V24.5401H113.17C112.001 24.5401 111.417 24.8821 111.417 25.5661C111.417 25.8652 111.516 26.0989 111.716 26.2673C111.915 26.4358 112.171 26.52 112.484 26.52ZM116.134 24.4112C116.134 23.5553 116.337 22.8679 116.743 22.3489C117.148 21.8264 117.679 21.5652 118.336 21.5652C118.989 21.5652 119.506 21.7886 119.888 22.2354V19.3275H120.842V27.2469H119.965L119.919 26.6489C119.537 27.1163 119.006 27.3501 118.325 27.3501C117.679 27.3501 117.152 27.0854 116.743 26.5561C116.337 26.0267 116.134 25.3358 116.134 24.4834V24.4112ZM117.088 24.5195C117.088 25.1519 117.219 25.6469 117.48 26.0044C117.741 26.3619 118.102 26.5406 118.563 26.5406C119.168 26.5406 119.609 26.269 119.888 25.726V23.1635C119.602 22.6376 119.164 22.3746 118.573 22.3746C118.105 22.3746 117.741 22.5551 117.48 22.916C117.219 23.2769 117.088 23.8114 117.088 24.5195ZM126.786 25.9528L128.168 21.6683H129.143L127.142 27.2469H126.415L124.394 21.6683H125.368L126.786 25.9528ZM131.097 27.2469H130.143V21.6683H131.097V27.2469ZM130.065 20.1885C130.065 20.0339 130.112 19.9033 130.205 19.7967C130.301 19.6901 130.442 19.6369 130.627 19.6369C130.813 19.6369 130.954 19.6901 131.05 19.7967C131.146 19.9033 131.195 20.0339 131.195 20.1885C131.195 20.3432 131.146 20.4721 131.05 20.5752C130.954 20.6784 130.813 20.7299 130.627 20.7299C130.442 20.7299 130.301 20.6784 130.205 20.5752C130.112 20.4721 130.065 20.3432 130.065 20.1885ZM136.072 27.2469C136.017 27.137 135.972 26.941 135.938 26.6592C135.495 27.1198 134.965 27.3501 134.35 27.3501C133.8 27.3501 133.348 27.1954 132.994 26.886C132.643 26.5732 132.468 26.178 132.468 25.7002C132.468 25.1193 132.688 24.669 133.128 24.3493C133.571 24.0262 134.194 23.8647 134.994 23.8647H135.923V23.4264C135.923 23.093 135.823 22.8284 135.623 22.6324C135.424 22.4331 135.13 22.3334 134.742 22.3334C134.402 22.3334 134.116 22.4193 133.886 22.5912C133.656 22.763 133.54 22.971 133.54 23.215H132.581C132.581 22.9366 132.679 22.6685 132.875 22.4107C133.075 22.1495 133.343 21.9433 133.68 21.792C134.02 21.6408 134.393 21.5652 134.799 21.5652C135.441 21.5652 135.945 21.7267 136.309 22.0498C136.674 22.3695 136.863 22.8112 136.876 23.3749V25.9425C136.876 26.4547 136.942 26.862 137.072 27.1645V27.2469H136.072ZM134.489 26.52C134.788 26.52 135.072 26.4426 135.34 26.288C135.608 26.1333 135.802 25.9322 135.923 25.6847V24.5401H135.175C134.006 24.5401 133.422 24.8821 133.422 25.5661C133.422 25.8652 133.522 26.0989 133.721 26.2673C133.92 26.4358 134.176 26.52 134.489 26.52Z" fill="white"/>
<path fill-rule="evenodd" clip-rule="evenodd" d="M126.48 46.2995C124.34 46.2995 122.773 45.2581 122.593 43.672L120.102 43.6719C120.26 46.5649 122.694 48.395 126.3 48.395C130.153 48.395 132.576 46.5208 132.576 43.5285C132.576 41.1891 131.19 39.8709 127.854 39.0948L126.063 38.6621C123.968 38.1528 123.111 37.4874 123.111 36.3566C123.111 34.9378 124.452 33.9631 126.412 33.9631C128.372 33.9631 129.713 34.9265 129.86 36.5227H132.316C132.237 33.7631 129.882 31.8676 126.447 31.8676C122.975 31.8676 120.531 33.7631 120.531 36.5227C120.531 38.7515 121.917 40.125 124.902 40.8344L127.009 41.3337C129.116 41.8432 130.006 42.5865 130.006 43.8279C130.006 45.2581 128.531 46.2995 126.48 46.2995ZM84.0912 43.8054H77.8941L76.4058 48.1284H73.781L79.6508 32.1342H82.3779L88.2477 48.1284H85.5781L84.0912 43.8054ZM78.5359 41.8105H83.4481L81.0265 34.7945H80.9588L78.5359 41.8105ZM95.9777 48.2504C98.9529 48.2504 100.924 45.9222 100.924 42.2985C100.924 38.6849 98.9413 36.3454 95.933 36.3454C94.385 36.2963 92.9349 37.0883 92.1587 38.4069H92.114V36.4674H89.7589V51.9861H92.1919V46.2102H92.2482C92.9913 47.5371 94.4399 48.3296 95.9777 48.2504ZM98.4236 42.2985C98.4236 39.9377 97.1834 38.3855 95.2912 38.3855C93.4322 38.3855 92.1817 39.9703 92.1817 42.2985C92.1817 44.6481 93.4322 46.2216 95.2912 46.2216C97.1834 46.2216 98.4236 44.6808 98.4236 42.2985ZM109.024 48.2504C111.999 48.2504 113.971 45.9222 113.971 42.2985C113.971 38.6849 111.988 36.3454 108.979 36.3454C107.431 36.2963 105.981 37.0883 105.205 38.4069H105.16V36.4674H102.805V51.9861H105.238V46.2102H105.294C106.038 47.5371 107.486 48.3296 109.024 48.2504ZM111.47 42.2985C111.47 39.9377 110.23 38.3855 108.337 38.3855C106.478 38.3855 105.228 39.9703 105.228 42.2985C105.228 44.6481 106.478 46.2216 108.337 46.2216C110.23 46.2216 111.47 44.6808 111.47 42.2985ZM137.827 33.7078V36.4674H140.081V38.3629H137.827V44.7915C137.827 45.7902 138.278 46.2555 139.269 46.2555C139.537 46.251 139.804 46.2325 140.069 46.2002V48.0843C139.624 48.1662 139.171 48.2033 138.718 48.195C136.318 48.195 135.382 47.3083 135.382 45.0468V38.3629H133.659V36.4674H135.382V33.7078H137.827ZM147.008 36.324C143.583 36.324 141.386 38.6295 141.386 42.2985C141.386 45.9776 143.561 48.2731 147.008 48.2731C150.456 48.2731 152.631 45.9776 152.631 42.2985C152.631 38.6295 150.445 36.324 147.008 36.324ZM150.152 42.2985C150.152 39.7817 148.98 38.2962 147.008 38.2962C145.037 38.2962 143.865 39.793 143.865 42.2985C143.865 44.8254 145.037 46.2996 147.008 46.2996C148.98 46.2996 150.152 44.8254 150.152 42.2985ZM156.958 36.4674H154.637L154.637 48.1284H157.07V41.2118C156.989 40.512 157.223 39.8124 157.711 39.2966C158.198 38.7808 158.89 38.5004 159.606 38.5289C159.976 38.5183 160.345 38.5671 160.699 38.6735V36.4347C160.425 36.3743 160.146 36.3444 159.865 36.3454C158.528 36.2951 157.338 37.1745 157.014 38.4522H156.958V36.4674ZM171.917 44.7034C171.589 46.8203 169.494 48.273 166.813 48.273C163.364 48.273 161.224 46.0002 161.224 42.3539C161.224 38.6962 163.376 36.324 166.71 36.324C169.99 36.324 172.052 38.5402 172.052 42.0759V42.896H163.68V43.0406C163.602 43.9088 163.907 44.7681 164.517 45.4C165.127 46.032 165.984 46.3756 166.869 46.3436C168.05 46.4524 169.163 45.7854 169.606 44.7034L171.917 44.7034ZM169.618 41.2231H163.692C163.69 40.4358 164.007 39.6803 164.574 39.1246C165.141 38.5688 165.91 38.2588 166.71 38.2635C167.504 38.2467 168.27 38.5566 168.821 39.1184C169.373 39.6802 169.662 40.443 169.618 41.2231Z" fill="white"/>
<path fill-rule="evenodd" clip-rule="evenodd" d="M52.9235 18.8715C51.2055 18.9433 49.1238 20.0124 47.8918 21.4497C46.7842 22.7262 45.8174 24.7633 46.0781 26.7167C47.9962 26.8662 49.9507 25.746 51.1447 24.3079C52.3362 22.8673 53.143 20.868 52.9235 18.8715ZM52.4379 52.8654C54.7657 52.8222 56.24 50.7599 57.6653 48.6848C59.2271 46.4119 59.9167 44.2081 60.0196 43.8795C60.0253 43.8612 60.0292 43.8487 60.0313 43.8424C60.0303 43.8419 60.0274 43.8407 60.0228 43.8388C59.7988 43.7482 55.4903 42.0031 55.4475 36.959C55.4054 32.7936 58.74 30.7215 59.1071 30.4934C59.1199 30.4855 59.129 30.4798 59.1344 30.4763C57.1272 27.5523 54.0019 27.1514 52.8884 27.1056C51.2618 26.9417 49.6837 27.5611 48.3944 28.0672C47.575 28.3888 46.8722 28.6646 46.3476 28.6646C45.7638 28.6646 45.0418 28.3792 44.2314 28.0588C43.1709 27.6395 41.959 27.1604 40.708 27.1833C37.8102 27.2265 35.1362 28.8633 33.6439 31.4503C30.6303 36.6593 32.8711 44.3781 35.8069 48.6018C37.2439 50.6675 38.9527 52.9924 41.1999 52.9087C42.2033 52.8686 42.9174 52.5657 43.6559 52.2524C44.5094 51.8904 45.3955 51.5145 46.7984 51.5145C48.1346 51.5145 48.9797 51.8788 49.7926 52.2291C50.57 52.5642 51.318 52.8866 52.4379 52.8654Z" fill="white"/>
</svg>
