<svg width="126" height="126" viewBox="0 0 126 126" fill="none" xmlns="http://www.w3.org/2000/svg">
<g filter="url(#filter0_d_1_798)">
<rect x="22" y="11" width="82" height="82" rx="14" fill="white"/>
</g>
<path fill-rule="evenodd" clip-rule="evenodd" d="M59.6376 38.0014C60.0911 38.1591 60.4858 38.4143 60.7993 38.7382C58.9206 39.0449 57.1778 39.6944 55.6631 40.6106C55.6689 40.3025 55.7278 39.9926 55.8422 39.6923C56.4016 38.224 58.1008 37.467 59.6376 38.0014ZM53.0596 38.7247C52.5665 40.0189 52.5902 41.4081 53.082 42.6539C51.3673 44.4187 50.248 46.6379 50.0001 49.0834C49.9732 49.0107 49.9591 48.9458 49.9577 48.9274C49.9011 48.148 49.194 47.56 48.3782 47.6141C47.5625 47.6681 46.947 48.3438 47.0036 49.1232C47.0318 49.5122 47.1471 50.0046 47.4359 50.5231C47.9849 51.5088 48.9319 52.0842 50.1433 52.1034C50.5685 54.2418 51.6747 56.219 53.3337 57.832C53.9068 58.3892 54.8443 58.397 55.4275 57.8494C56.0107 57.3018 56.0189 56.4061 55.4457 55.8489C53.9257 54.3711 53.0354 52.5194 52.9216 50.5494C52.9301 50.4449 52.9265 50.3387 52.91 50.2326C52.9094 50.1942 52.9091 50.1559 52.9091 50.1174C52.9091 45.3212 57.516 41.3681 63.2733 41.3681C64.9038 41.3681 66.477 41.6859 67.9003 42.2874C68.4864 42.535 69.1727 42.3943 69.6009 41.9387C70.6504 40.822 72.2217 40.3413 73.7147 40.6062L71.8219 43.7386C71.5254 44.2292 71.5639 44.8415 71.9197 45.2947C72.7607 46.3661 73.312 47.5782 73.5307 48.8563C73.6478 49.5404 74.2664 50.0427 74.9919 50.0427H76.5988V52.8719H74.0791C73.5189 52.8719 73.0066 53.174 72.7555 53.6524C72.3378 54.4485 71.7796 55.1891 71.101 55.8489C70.8288 56.1135 70.6764 56.4695 70.6764 56.8404V61.7708H67.7152V59.9612C67.7152 59.0513 66.829 58.378 65.9011 58.5829C65.0509 58.7707 64.1702 58.8668 63.2733 58.8668C62.3765 58.8668 61.4958 58.7707 60.6456 58.5829C59.7177 58.378 58.8315 59.0513 58.8315 59.9612V61.7708H55.8703C55.8703 60.9895 55.2074 60.3562 54.3897 60.3562C53.572 60.3562 52.9091 60.9895 52.9091 61.7708C52.9091 63.3333 54.2349 64.6 55.8703 64.6H58.8315C60.467 64.6 61.7927 63.3333 61.7927 61.7708V61.6253C62.2818 61.6723 62.7759 61.696 63.2733 61.696C63.7708 61.696 64.2649 61.6723 64.7539 61.6253V61.7708C64.7539 63.3333 66.0797 64.6 67.7152 64.6H70.6764C72.3118 64.6 73.6376 63.3333 73.6376 61.7708V57.3983C74.1318 56.8676 74.5716 56.2998 74.9512 55.7011H76.5988C78.2342 55.7011 79.56 54.4344 79.56 52.8719V50.0427C79.56 48.4801 78.2342 47.2134 76.5988 47.2134H76.1763C75.881 46.219 75.4351 45.2677 74.8528 44.3813L77.1463 40.586C77.5551 39.9094 77.3125 39.0442 76.6043 38.6536C73.8743 37.1476 70.504 37.4784 68.1635 39.3429C66.8809 38.9034 65.522 38.6388 64.1256 38.5622C63.5102 37.0888 62.2657 35.9045 60.6504 35.3428C57.5768 34.2739 54.1783 35.7881 53.0596 38.7247Z" fill="#01B6A7"/>
<path d="M60.7993 38.7382L60.8887 39.286L61.9363 39.115L61.1981 38.3523L60.7993 38.7382ZM59.6376 38.0014L59.8199 37.4772L59.6376 38.0014ZM55.6631 40.6106L55.1082 40.6002L55.0892 41.6064L55.9503 41.0855L55.6631 40.6106ZM55.8422 39.6923L55.3236 39.4948L55.8422 39.6923ZM53.082 42.6539L53.48 43.0407L53.7298 42.7836L53.5982 42.4502L53.082 42.6539ZM53.0596 38.7247L53.5782 38.9223L53.0596 38.7247ZM50.0001 49.0834L49.4793 49.2754L50.5522 49.1394L50.0001 49.0834ZM49.9577 48.9274L49.4042 48.9676L49.4042 48.9676L49.9577 48.9274ZM48.3782 47.6141L48.4149 48.1679L48.3782 47.6141ZM47.0036 49.1232L46.4501 49.1634L47.0036 49.1232ZM47.4359 50.5231L47.9208 50.2531L47.4359 50.5231ZM50.1433 52.1034L50.6876 51.9952L50.6002 51.5556L50.1521 51.5485L50.1433 52.1034ZM53.3337 57.832L53.7206 57.434L53.3337 57.832ZM55.4275 57.8494L55.0476 57.4448L55.4275 57.8494ZM55.4457 55.8489L55.8326 55.451H55.8326L55.4457 55.8489ZM52.9216 50.5494L52.3684 50.504L52.3652 50.5427L52.3675 50.5814L52.9216 50.5494ZM52.91 50.2326L52.3551 50.2411L52.3556 50.2799L52.3616 50.3182L52.91 50.2326ZM67.9003 42.2874L67.6843 42.7986H67.6843L67.9003 42.2874ZM69.6009 41.9387L70.0053 42.3188V42.3188L69.6009 41.9387ZM73.7147 40.6062L74.1898 40.8932L74.6081 40.201L73.8117 40.0597L73.7147 40.6062ZM71.8219 43.7386L72.2969 44.0257V44.0257L71.8219 43.7386ZM71.9197 45.2947L71.4831 45.6374L71.9197 45.2947ZM73.5307 48.8563L72.9837 48.9499V48.9499L73.5307 48.8563ZM76.5988 50.0427H77.1538V49.4877H76.5988V50.0427ZM76.5988 52.8719V53.4269H77.1538V52.8719H76.5988ZM72.7555 53.6524L73.247 53.9103L72.7555 53.6524ZM71.101 55.8489L71.4878 56.2468L71.4878 56.2468L71.101 55.8489ZM70.6764 61.7708V62.3258H71.2314V61.7708H70.6764ZM67.7152 61.7708H67.1602V62.3258H67.7152V61.7708ZM65.9011 58.5829L66.0208 59.1249L65.9011 58.5829ZM60.6456 58.5829L60.5259 59.1249H60.5259L60.6456 58.5829ZM58.8315 61.7708V62.3258H59.3865V61.7708H58.8315ZM55.8703 61.7708H55.3153V62.3258H55.8703V61.7708ZM61.7927 61.6253L61.8458 61.0729L61.2377 61.0145V61.6253H61.7927ZM64.7539 61.6253H65.3089V61.0145L64.7009 61.0729L64.7539 61.6253ZM73.6376 57.3983L73.2314 57.02L73.0826 57.1799V57.3983H73.6376ZM74.9512 55.7011V55.1461H74.6459L74.4824 55.4039L74.9512 55.7011ZM76.1763 47.2134L75.6443 47.3714L75.7622 47.7684H76.1763V47.2134ZM74.8528 44.3813L74.3778 44.0943L74.1969 44.3937L74.389 44.6861L74.8528 44.3813ZM77.1463 40.586L76.6713 40.299V40.299L77.1463 40.586ZM76.6043 38.6536L76.3363 39.1396V39.1396L76.6043 38.6536ZM68.1635 39.3429L67.9835 39.8679L68.2713 39.9666L68.5093 39.777L68.1635 39.3429ZM64.1256 38.5622L63.6135 38.7761L63.7476 39.0973L64.0952 39.1163L64.1256 38.5622ZM60.6504 35.3428L60.4681 35.867L60.6504 35.3428ZM61.1981 38.3523C60.8239 37.9656 60.3549 37.6632 59.8199 37.4772L59.4553 38.5256C59.8273 38.655 60.1477 38.863 60.4005 39.1242L61.1981 38.3523ZM55.9503 41.0855C57.4034 40.2066 59.0788 39.5814 60.8887 39.286L60.7099 38.1905C58.7623 38.5084 56.9522 39.1822 55.3758 40.1358L55.9503 41.0855ZM55.3236 39.4948C55.1864 39.8548 55.1152 40.228 55.1082 40.6002L56.218 40.6211C56.2226 40.377 56.2692 40.1304 56.3609 39.8899L55.3236 39.4948ZM59.8199 37.4772C58.0163 36.85 55.996 37.7297 55.3236 39.4948L56.3609 39.8899C56.8072 38.7183 58.1854 38.084 59.4553 38.5256L59.8199 37.4772ZM53.5982 42.4502C53.1565 41.3311 53.1352 40.0851 53.5782 38.9223L52.5409 38.5271C51.9979 39.9527 52.0239 41.485 52.5657 42.8577L53.5982 42.4502ZM50.5522 49.1394C50.7863 46.8307 51.8435 44.725 53.48 43.0407L52.6839 42.2672C50.8911 44.1123 49.7097 46.4451 49.4479 49.0274L50.5522 49.1394ZM49.4042 48.9676C49.411 49.0623 49.4456 49.1838 49.4793 49.2754L50.5208 48.8914C50.5178 48.8833 50.5151 48.8751 50.5126 48.8673C50.5102 48.8594 50.5083 48.8526 50.507 48.8474C50.5056 48.842 50.5053 48.84 50.5056 48.8418C50.5058 48.8427 50.5065 48.8461 50.5073 48.8517C50.5078 48.8545 50.5084 48.8587 50.509 48.8641C50.5096 48.8691 50.5105 48.8771 50.5113 48.8872L49.4042 48.9676ZM48.4149 48.1679C48.9498 48.1324 49.3714 48.5156 49.4042 48.9676L50.5113 48.8872C50.4309 47.7804 49.4382 46.9876 48.3415 47.0603L48.4149 48.1679ZM47.5572 49.083C47.5246 48.6342 47.8823 48.2032 48.4149 48.1679L48.3415 47.0603C47.2426 47.1331 46.3695 48.0534 46.4501 49.1634L47.5572 49.083ZM47.9208 50.2531C47.6745 49.8109 47.58 49.398 47.5572 49.083L46.4501 49.1634C46.4837 49.6264 46.6197 50.1983 46.951 50.7931L47.9208 50.2531ZM50.1521 51.5485C49.1335 51.5323 48.3707 51.0609 47.9208 50.2531L46.951 50.7931C47.5991 51.9567 48.7304 52.636 50.1345 52.6583L50.1521 51.5485ZM53.7206 57.434C52.1361 55.8936 51.0893 54.0152 50.6876 51.9952L49.5989 52.2116C50.0476 54.4683 51.2132 56.5445 52.9468 58.2299L53.7206 57.434ZM55.0476 57.4448C54.6804 57.7896 54.0807 57.7842 53.7206 57.434L52.9468 58.2299C53.733 58.9942 55.0082 59.0044 55.8074 58.254L55.0476 57.4448ZM55.0589 56.2468C55.4048 56.5832 55.4005 57.1135 55.0476 57.4448L55.8074 58.254C56.621 57.4901 56.633 56.2291 55.8326 55.451L55.0589 56.2468ZM52.3675 50.5814C52.4901 52.7031 53.4491 54.6818 55.0589 56.2468L55.8326 55.451C54.4023 54.0604 53.5807 52.3357 53.4756 50.5174L52.3675 50.5814ZM52.3616 50.3182C52.3713 50.3805 52.3734 50.4427 52.3684 50.504L53.4747 50.5947C53.4868 50.4471 53.4818 50.297 53.4584 50.147L52.3616 50.3182ZM52.3541 50.1174C52.3541 50.1587 52.3544 50.1999 52.3551 50.2411L53.4649 50.2241C53.4644 50.1886 53.4641 50.153 53.4641 50.1174H52.3541ZM63.2733 40.8131C57.2985 40.8131 52.3541 44.9327 52.3541 50.1174H53.4641C53.4641 45.7097 57.7335 41.9231 63.2733 41.9231V40.8131ZM68.1164 41.7761C66.6226 41.145 64.9758 40.8131 63.2733 40.8131V41.9231C64.8319 41.9231 66.3314 42.2269 67.6843 42.7986L68.1164 41.7761ZM69.1964 41.5587C68.9311 41.841 68.4937 41.9355 68.1164 41.7761L67.6843 42.7986C68.4792 43.1345 69.4144 42.9476 70.0053 42.3188L69.1964 41.5587ZM73.8117 40.0597C72.1439 39.7638 70.3809 40.2983 69.1964 41.5587L70.0053 42.3188C70.9198 41.3457 72.2995 40.9188 73.6178 41.1527L73.8117 40.0597ZM72.2969 44.0257L74.1898 40.8932L73.2397 40.3192L71.3469 43.4516L72.2969 44.0257ZM72.3562 44.952C72.1419 44.6791 72.1206 44.3174 72.2969 44.0257L71.3469 43.4516C70.9302 44.141 70.9858 45.004 71.4831 45.6374L72.3562 44.952ZM74.0778 48.7627C73.8425 47.3879 73.2505 46.0912 72.3562 44.952L71.4831 45.6374C72.271 46.641 72.7815 47.7685 72.9837 48.9499L74.0778 48.7627ZM74.9919 49.4877C74.5185 49.4877 74.1462 49.1626 74.0778 48.7627L72.9837 48.9499C73.1494 49.9182 74.0143 50.5977 74.9919 50.5977V49.4877ZM76.5988 49.4877H74.9919V50.5977H76.5988V49.4877ZM77.1538 52.8719V50.0427H76.0438V52.8719H77.1538ZM74.0791 53.4269H76.5988V52.3169H74.0791V53.4269ZM73.247 53.9103C73.3979 53.6228 73.7157 53.4269 74.0791 53.4269V52.3169C73.3221 52.3169 72.6154 52.7251 72.2641 53.3945L73.247 53.9103ZM71.4878 56.2468C72.2062 55.5484 72.8005 54.7611 73.247 53.9103L72.2641 53.3945C71.875 54.1359 71.3531 54.8297 70.7141 55.451L71.4878 56.2468ZM71.2314 56.8404C71.2314 56.6233 71.3204 56.4096 71.4878 56.2468L70.7141 55.451C70.3373 55.8173 70.1214 56.3158 70.1214 56.8404H71.2314ZM71.2314 61.7708V56.8404H70.1214V61.7708H71.2314ZM67.7152 62.3258H70.6764V61.2158H67.7152V62.3258ZM67.1602 59.9612V61.7708H68.2702V59.9612H67.1602ZM66.0208 59.1249C66.6338 58.9895 67.1602 59.4376 67.1602 59.9612H68.2702C68.2702 58.6649 67.0242 57.7665 65.7814 58.041L66.0208 59.1249ZM63.2733 59.4218C64.2099 59.4218 65.1307 59.3214 66.0208 59.1249L65.7814 58.041C64.9711 58.2199 64.1306 58.3118 63.2733 58.3118V59.4218ZM60.5259 59.1249C61.416 59.3214 62.3368 59.4218 63.2733 59.4218V58.3118C62.4161 58.3118 61.5756 58.2199 60.7653 58.041L60.5259 59.1249ZM59.3865 59.9612C59.3865 59.4376 59.9129 58.9895 60.5259 59.1249L60.7653 58.041C59.5224 57.7665 58.2765 58.6649 58.2765 59.9612H59.3865ZM59.3865 61.7708V59.9612H58.2765V61.7708H59.3865ZM55.8703 62.3258H58.8315V61.2158H55.8703V62.3258ZM54.3897 60.9112C54.925 60.9112 55.3153 61.3196 55.3153 61.7708H56.4253C56.4253 60.6594 55.4898 59.8012 54.3897 59.8012V60.9112ZM53.4641 61.7708C53.4641 61.3196 53.8544 60.9112 54.3897 60.9112V59.8012C53.2896 59.8012 52.3541 60.6594 52.3541 61.7708H53.4641ZM55.8703 64.045C54.5173 64.045 53.4641 63.0032 53.4641 61.7708H52.3541C52.3541 63.6634 53.9525 65.155 55.8703 65.155V64.045ZM58.8315 64.045H55.8703V65.155H58.8315V64.045ZM61.2377 61.7708C61.2377 63.0032 60.1846 64.045 58.8315 64.045V65.155C60.7494 65.155 62.3477 63.6634 62.3477 61.7708H61.2377ZM61.2377 61.6253V61.7708H62.3477V61.6253H61.2377ZM63.2733 61.141C62.7935 61.141 62.3172 61.1181 61.8458 61.0729L61.7397 62.1778C62.2465 62.2265 62.7583 62.251 63.2733 62.251V61.141ZM64.7009 61.0729C64.2295 61.1181 63.7531 61.141 63.2733 61.141V62.251C63.7884 62.251 64.3002 62.2265 64.807 62.1778L64.7009 61.0729ZM65.3089 61.7708V61.6253H64.1989V61.7708H65.3089ZM67.7152 64.045C66.3621 64.045 65.3089 63.0032 65.3089 61.7708H64.1989C64.1989 63.6634 65.7973 65.155 67.7152 65.155V64.045ZM70.6764 64.045H67.7152V65.155H70.6764V64.045ZM73.0826 61.7708C73.0826 63.0032 72.0294 64.045 70.6764 64.045V65.155C72.5942 65.155 74.1926 63.6634 74.1926 61.7708H73.0826ZM73.0826 57.3983V61.7708H74.1926V57.3983H73.0826ZM74.4824 55.4039C74.1217 55.9729 73.703 56.5137 73.2314 57.02L74.0437 57.7765C74.5606 57.2215 75.0215 56.6266 75.4199 55.9983L74.4824 55.4039ZM76.5988 55.1461H74.9512V56.2561H76.5988V55.1461ZM79.005 52.8719C79.005 54.1043 77.9518 55.1461 76.5988 55.1461V56.2561C78.5166 56.2561 80.115 54.7645 80.115 52.8719H79.005ZM79.005 50.0427V52.8719H80.115V50.0427H79.005ZM76.5988 47.7684C77.9518 47.7684 79.005 48.8102 79.005 50.0427H80.115C80.115 48.15 78.5166 46.6584 76.5988 46.6584V47.7684ZM76.1763 47.7684H76.5988V46.6584H76.1763V47.7684ZM74.389 44.6861C74.9425 45.5286 75.3649 46.4307 75.6443 47.3714L76.7083 47.0554C76.397 46.0073 75.9277 45.0067 75.3167 44.0766L74.389 44.6861ZM76.6713 40.299L74.3778 44.0943L75.3278 44.6684L77.6213 40.873L76.6713 40.299ZM76.3363 39.1396C76.7797 39.3842 76.9106 39.9028 76.6713 40.299L77.6213 40.873C78.1996 39.916 77.8453 38.7043 76.8724 38.1676L76.3363 39.1396ZM68.5093 39.777C70.6757 38.0512 73.8039 37.7427 76.3363 39.1396L76.8724 38.1676C73.9446 36.5526 70.3322 36.9056 67.8177 38.9088L68.5093 39.777ZM64.0952 39.1163C65.4415 39.1902 66.7501 39.4453 67.9835 39.8679L68.3434 38.8179C67.0118 38.3616 65.6025 38.0874 64.156 38.008L64.0952 39.1163ZM60.4681 35.867C61.9375 36.378 63.0602 37.4514 63.6135 38.7761L64.6377 38.3483C63.9602 36.7262 62.5938 35.431 60.8327 34.8186L60.4681 35.867ZM53.5782 38.9223C54.5839 36.2824 57.6614 34.891 60.4681 35.867L60.8327 34.8186C57.4922 33.6569 53.7727 35.2938 52.5409 38.5271L53.5782 38.9223Z" fill="white"/>
<path fill-rule="evenodd" clip-rule="evenodd" d="M61.8092 46.4189C61.8092 45.8899 62.2511 45.4611 62.7961 45.4611C63.3411 45.4611 63.7829 45.8899 63.7829 46.4189H64.7235C65.2685 46.4189 65.7103 46.8477 65.7103 47.3767C65.7103 47.9057 65.2685 48.3345 64.7235 48.3345H62.7968C62.7965 48.3345 62.7963 48.3345 62.7961 48.3345C62.7958 48.3345 62.7956 48.3345 62.7954 48.3345H61.8077L61.7923 49.2923H63.7519C64.8299 49.2923 65.7085 50.1318 65.7253 51.1779L65.7408 52.1357C65.7578 53.1935 64.8881 54.0644 63.7982 54.0809L63.7829 54.0811C63.7783 54.6062 63.3382 55.0306 62.7961 55.0306C62.254 55.0306 61.8139 54.6063 61.8093 54.0812H60.8224C60.2774 54.0812 59.8356 53.6524 59.8356 53.1234C59.8356 52.5944 60.2774 52.1656 60.8224 52.1656H62.7961H63.7674L63.7519 51.2078H61.7923L61.7614 51.2076C60.6715 51.1911 59.8018 50.3201 59.8188 49.2623L59.8343 48.3045C59.8511 47.2584 60.7297 46.4189 61.8077 46.4189H61.8092Z" fill="#01B6A7"/>
<path d="M61.8092 46.4189V46.7889H62.1792V46.4189H61.8092ZM63.7829 46.4189H63.4129V46.7889H63.7829V46.4189ZM61.8077 48.3345V47.9645H61.4436L61.4377 48.3285L61.8077 48.3345ZM61.7923 49.2923L61.4223 49.2863L61.4163 49.6623H61.7923V49.2923ZM65.7253 51.1779L65.3554 51.1838L65.7253 51.1779ZM65.7408 52.1357L66.1107 52.1297L65.7408 52.1357ZM63.7982 54.0809L63.801 54.4509L63.8038 54.4509L63.7982 54.0809ZM63.7829 54.0811L63.7801 53.7111L63.4161 53.7138L63.4129 54.0778L63.7829 54.0811ZM61.8093 54.0812L62.1793 54.0779L62.176 53.7112H61.8093V54.0812ZM63.7674 52.1656V52.5356H64.1434L64.1373 52.1597L63.7674 52.1656ZM63.7519 51.2078L64.1219 51.2019L64.116 50.8378H63.7519V51.2078ZM61.7923 51.2078L61.7895 51.5778H61.7923V51.2078ZM61.7614 51.2076L61.7558 51.5776L61.7586 51.5776L61.7614 51.2076ZM59.8188 49.2623L60.1888 49.2683L59.8188 49.2623ZM59.8343 48.3045L59.4643 48.2986L59.8343 48.3045ZM62.1792 46.4189C62.1792 46.1046 62.4449 45.8311 62.7961 45.8311V45.0911C62.0572 45.0911 61.4392 45.6753 61.4392 46.4189H62.1792ZM62.7961 45.8311C63.1472 45.8311 63.4129 46.1046 63.4129 46.4189H64.1529C64.1529 45.6753 63.5349 45.0911 62.7961 45.0911V45.8311ZM63.7829 46.7889H64.7235V46.0489H63.7829V46.7889ZM64.7235 46.7889C65.0746 46.7889 65.3403 47.0624 65.3403 47.3767H66.0803C66.0803 46.633 65.4623 46.0489 64.7235 46.0489V46.7889ZM65.3403 47.3767C65.3403 47.691 65.0746 47.9645 64.7235 47.9645V48.7045C65.4623 48.7045 66.0803 48.1204 66.0803 47.3767H65.3403ZM64.7235 47.9645H62.7968V48.7045H64.7235V47.9645ZM62.7968 47.9645H62.7961V48.7045L62.7968 48.7045V47.9645ZM62.7961 47.9645H62.7954V48.7045L62.7961 48.7045V47.9645ZM62.7954 47.9645H61.8077V48.7045H62.7954V47.9645ZM61.4377 48.3285L61.4223 49.2863L62.1622 49.2982L62.1776 48.3404L61.4377 48.3285ZM61.7923 49.6623H63.7519V48.9223H61.7923V49.6623ZM63.7519 49.6623C64.6381 49.6623 65.342 50.3498 65.3554 51.1838L66.0953 51.1719C66.075 49.9137 65.0217 48.9223 63.7519 48.9223V49.6623ZM65.3554 51.1838L65.3708 52.1416L66.1107 52.1297L66.0953 51.1719L65.3554 51.1838ZM65.3708 52.1416C65.3844 52.9846 64.6885 53.6974 63.7926 53.711L63.8038 54.4509C65.0877 54.4314 66.1312 53.4023 66.1107 52.1297L65.3708 52.1416ZM63.7954 53.711L63.7801 53.7111L63.7857 54.451L63.801 54.4509L63.7954 53.711ZM63.4129 54.0778C63.4102 54.3899 63.1453 54.6606 62.7961 54.6606V55.4006C63.5311 55.4006 64.1464 54.8226 64.1529 54.0843L63.4129 54.0778ZM62.7961 54.6606C62.4468 54.6606 62.182 54.3899 62.1793 54.0779L61.4393 54.0844C61.4458 54.8226 62.0611 55.4006 62.7961 55.4006V54.6606ZM61.8093 53.7112H60.8224V54.4512H61.8093V53.7112ZM60.8224 53.7112C60.4713 53.7112 60.2056 53.4377 60.2056 53.1234H59.4656C59.4656 53.8671 60.0836 54.4512 60.8224 54.4512V53.7112ZM60.2056 53.1234C60.2056 52.8091 60.4713 52.5356 60.8224 52.5356V51.7956C60.0836 51.7956 59.4656 52.3797 59.4656 53.1234H60.2056ZM60.8224 52.5356H62.7961V51.7956H60.8224V52.5356ZM62.7961 52.5356H63.7674V51.7956H62.7961V52.5356ZM64.1373 52.1597L64.1219 51.2019L63.382 51.2138L63.3974 52.1716L64.1373 52.1597ZM63.7519 50.8378H61.7923V51.5778H63.7519V50.8378ZM61.7951 50.8378L61.7642 50.8376L61.7586 51.5776L61.7895 51.5778L61.7951 50.8378ZM61.767 50.8376C60.8711 50.824 60.1752 50.1113 60.1888 49.2683L59.4489 49.2564C59.4284 50.529 60.472 51.5581 61.7558 51.5776L61.767 50.8376ZM60.1888 49.2683L60.2042 48.3105L59.4643 48.2986L59.4489 49.2564L60.1888 49.2683ZM60.2042 48.3105C60.2177 47.4765 60.9215 46.7889 61.8077 46.7889V46.0489C60.5379 46.0489 59.4846 47.0404 59.4643 48.2986L60.2042 48.3105ZM61.8077 46.7889H61.8092V46.0489H61.8077V46.7889Z" fill="white"/>
<defs>
<filter id="filter0_d_1_798" x="0" y="0" width="126" height="126" filterUnits="userSpaceOnUse" color-interpolation-filters="sRGB">
<feFlood flood-opacity="0" result="BackgroundImageFix"/>
<feColorMatrix in="SourceAlpha" type="matrix" values="0 0 0 0 0 0 0 0 0 0 0 0 0 0 0 0 0 0 127 0" result="hardAlpha"/>
<feOffset dy="11"/>
<feGaussianBlur stdDeviation="11"/>
<feColorMatrix type="matrix" values="0 0 0 0 0.0576979 0 0 0 0 0.408911 0 0 0 0 0.377921 0 0 0 0.2 0"/>
<feBlend mode="normal" in2="BackgroundImageFix" result="effect1_dropShadow_1_798"/>
<feBlend mode="normal" in="SourceGraphic" in2="effect1_dropShadow_1_798" result="shape"/>
</filter>
</defs>
</svg>
