<svg width="30" height="33" viewBox="0 0 30 33" fill="none" xmlns="http://www.w3.org/2000/svg">
<path d="M3 7.42814V10.5C3 11.3284 2.32843 12 1.5 12C0.671573 12 0 11.3284 0 10.5V6.375C0 5.74301 0.396115 5.17882 0.990533 4.96417L14.4905 0.0891692C14.8198 -0.029723 15.1802 -0.029723 15.5095 0.0891692L29.0095 4.96417C29.6039 5.17882 30 5.74301 30 6.375V16.5C30 24.7495 25.0068 30.2975 15.3986 32.9461C15.1411 33.0171 14.8693 33.018 14.6112 32.9487C4.99688 30.3689 0 24.8168 0 16.5C0 15.6716 0.671573 15 1.5 15C2.32843 15 3 15.6716 3 16.5C3 23.2449 6.87768 27.66 14.9948 29.943C23.1185 27.5998 27 23.1817 27 16.5V7.42814L15 3.09481L3 7.42814Z" fill="white"/>
<path fill-rule="evenodd" clip-rule="evenodd" d="M16 11.666H17.9296C18.4819 11.666 18.9296 12.1459 18.9296 12.7378C18.9296 13.3297 18.4819 13.8095 17.9296 13.8095H13.0209V15.4256H17C18.1046 15.4256 19 16.3852 19 17.569V19.704C19 20.8878 18.1046 21.8475 17 21.8475H16V22.9283C16 23.5202 15.5523 24 15 24C14.4477 24 14 23.5202 14 22.9283V21.8475H12C11.4477 21.8475 11 21.3676 11 20.7757C11 20.1838 11.4477 19.704 12 19.704H17V17.569H13.0209C11.9163 17.569 11.0209 16.6094 11.0209 15.4256V13.8095C11.0209 12.6257 11.9163 11.666 13.0209 11.666H14V10.0717C14 9.47983 14.4477 9 15 9C15.5523 9 16 9.47983 16 10.0717V11.666Z" fill="#A7FAF2"/>
</svg>
