<svg width="20" height="20" viewBox="0 0 20 20" fill="none" xmlns="http://www.w3.org/2000/svg">
<path id="Shape" fill-rule="evenodd" clip-rule="evenodd" d="M15.6828 4.03462C16.5236 6.44957 15.7329 9.12907 13.7134 10.7093C17.1678 12.0727 19.5836 15.221 19.9942 18.8945C20.053 19.4403 19.6582 19.9311 19.1099 19.9939H18.9993C18.4848 19.997 18.051 19.613 17.9944 19.1044C17.5375 15.0595 14.098 12.0016 10.0052 12.0016C5.91241 12.0016 2.47288 15.0595 2.01601 19.1044C1.95496 19.6564 1.45554 20.0546 0.900537 19.9939C0.345529 19.9332 -0.0549015 19.4365 0.00614933 18.8845C0.414771 15.2218 2.81703 12.0798 6.25681 10.7093C4.23726 9.12907 3.44663 6.44957 4.28736 4.03462C5.12809 1.61967 7.41542 0 9.9851 0C12.5548 0 14.8421 1.61967 15.6828 4.03462ZM5.96538 6.00201C5.96538 8.20987 7.76507 9.99969 9.9851 9.99969C11.0512 9.99969 12.0736 9.57851 12.8275 8.8288C13.5813 8.07909 14.0048 7.06226 14.0048 6.00201C14.0048 3.79415 12.2051 2.00433 9.9851 2.00433C7.76507 2.00433 5.96538 3.79415 5.96538 6.00201Z" fill="#A7FAF2"/>
</svg>
