<svg width="60" height="60" viewBox="0 0 60 60" fill="none" xmlns="http://www.w3.org/2000/svg">
<g id="cashback">
<path id="Path" d="M51.2828 11.9239L50.6613 17.1C47.4148 11.8823 42.349 8.09004 36.3023 6.46453C23.3048 2.97043 9.89695 10.7369 6.41428 23.777C2.93156 36.8173 10.6726 50.269 23.6702 53.7631C28.8854 55.1651 34.2748 54.8196 39.2553 52.7638C44.0757 50.7741 48.205 47.2253 50.8828 42.7708C51.2368 42.1815 51.0175 41.3958 50.4132 41.0737C49.8545 40.7758 49.1402 40.9762 48.8137 41.5189C43.7881 49.8793 33.7056 53.9514 24.2953 51.4216C12.5845 48.2734 5.61004 36.1534 8.7479 24.4044C11.8858 12.6551 23.966 5.65772 35.6768 8.80592C41.466 10.3622 46.2588 14.122 49.1459 19.2865L42.9918 17.6321C42.3472 17.4588 41.6848 17.8425 41.5121 18.4892C41.3394 19.1359 41.7218 19.8004 42.3664 19.9737L51.0794 22.316C51.7771 22.5035 52.5057 22.0104 52.5917 21.2902L53.6816 12.2139C53.7603 11.5581 53.2803 10.9444 52.6267 10.8655C51.9737 10.7866 51.3623 11.2692 51.2828 11.9239Z" fill="#00B6A6"/>
<path id="$" d="M25 33.0342H26.9717C26.9855 33.7251 27.29 34.3429 27.8853 34.8878C28.4806 35.4327 29.2187 35.7051 30.0997 35.7051C30.9737 35.7051 31.6585 35.4932 32.154 35.0694C32.6495 34.6456 32.942 34.1203 33.0315 33.4936C33.0865 32.7528 32.8766 32.1617 32.4017 31.7201C31.9269 31.2785 31.3144 30.9758 30.5642 30.8119L28.6854 30.3205C26.3179 29.7008 25.1342 28.3903 25.1342 26.3889C25.1342 25.2421 25.542 24.2842 26.3575 23.5149C27.173 22.7457 28.1658 22.3041 29.3358 22.1901V20H30.6468V22.2115C31.803 22.3682 32.7407 22.8347 33.4599 23.6111C34.1791 24.3874 34.5387 25.3703 34.5387 26.5598H32.5669C32.5669 25.8191 32.3106 25.2226 31.7978 24.7703C31.2851 24.318 30.6262 24.0919 29.8209 24.0919C29.0845 24.0919 28.4462 24.3038 27.906 24.7275C27.3657 25.1513 27.0956 25.698 27.0956 26.3675C27.0956 27.4145 27.7873 28.1125 29.1706 28.4615L31.0701 28.9423C32.4534 29.3127 33.484 29.8985 34.1619 30.6998C34.8397 31.501 35.1064 32.4928 34.9619 33.6752C34.838 34.7293 34.3924 35.6214 33.625 36.3515C32.8577 37.0815 31.8649 37.4929 30.6468 37.5854V40H29.3358V37.5641C28.0694 37.4003 27.0302 36.8821 26.2181 36.0096C25.406 35.1371 25 34.1453 25 33.0342Z" fill="#66D3CA"/>
</g>
</svg>
